PathFileType	4	(x/y/z)	S08_M20_T13
DataRate	CameraRate	NumFrames	NumMarkers	Units	OrigDataRate	OrigDataStartFrame	OrigNumFrames
240	240	4	51	mm	240	132	524
Frame#	Time	Sternum			R.Acromium			L.Acromium			Top.Head			R.ASIS			L.ASIS			R.PSIS			L.PSIS			R.Great.Tro			L.Great.Tro			R.Iliac.Crest			L.Iliac.Crest			V.Sacral			R.Thigh.Upper.Post			R.Thigh.Lower.Ant			R.Thigh.Lower.Post			R.Thigh.Upper.Ant			R.Knee.Lat			R.Knee.Med			R.Shank.Upper.Post			R.Shank.Lower.Ant			R.Shank.Lower.Post			R.Shank.Upper.Ant			R.Ankle.Lat			R.Ankle.Med			R.Heel.Upper			R.Heel.Med			R.Heel.Lat			R.Toe.Lat			R.Toe.Med			R.Toe.Tip			L.Thigh.Upper.Post			L.Thigh.Lower.Ant			L.Thigh.Lower.Post			L.Thigh.Upper.Ant			L.Knee.Lat			L.Knee.Med			L.Shank.Upper.Post			L.Shank.Lower.Ant			L.Shank.Lower.Post			L.Shank.Upper.Ant			L.Ankle.Lat			L.Ankle.Med			L.Heel.Upper			L.Heel.Med			L.Heel.Lat			L.Toe.Lat			L.Toe.Med			L.Toe.Tip			Cervical.Spine			Back			
		X1	Y1	Z1	X2	Y2	Z2	X3	Y3	Z3	X4	Y4	Z4	X5	Y5	Z5	X6	Y6	Z6	X7	Y7	Z7	X8	Y8	Z8	X9	Y9	Z9	X10	Y10	Z10	X11	Y11	Z11	X12	Y12	Z12	X13	Y13	Z13	X14	Y14	Z14	X15	Y15	Z15	X16	Y16	Z16	X17	Y17	Z17	X18	Y18	Z18	X19	Y19	Z19	X20	Y20	Z20	X21	Y21	Z21	X22	Y22	Z22	X23	Y23	Z23	X24	Y24	Z24	X25	Y25	Z25	X26	Y26	Z26	X27	Y27	Z27	X28	Y28	Z28	X29	Y29	Z29	X30	Y30	Z30	X31	Y31	Z31	X32	Y32	Z32	X33	Y33	Z33	X34	Y34	Z34	X35	Y35	Z35	X36	Y36	Z36	X37	Y37	Z37	X38	Y38	Z38	X39	Y39	Z39	X40	Y40	Z40	X41	Y41	Z41	X42	Y42	Z42	X43	Y43	Z43	X44	Y44	Z44	X45	Y45	Z45	X46	Y46	Z46	X47	Y47	Z47	X48	Y48	Z48	X49	Y49	Z49	X50	Y50	Z50	X51	Y51	Z51	

132	0.54583	-868.42	1211.5	312.46	-986.15	1443.3	491.3	-992.6	1480.5	159.38	-953.71	1766.6	340.65	-875.42	1000.2	419.37	-881.66	1000.8	186.05	-1079.5	1019.6	353.23	NaN	NaN	NaN	-930.2	888.36	493.35	-985.48	901.03	124.14	-972.48	1064.5	470	-981.57	1083.1	161.12	-1100	984.56	306.37	-866.15	692.71	480.38	-754.02	637.42	445.24	-821.1	614.68	458.73	-793.86	721.79	466.11	-740.77	541.83	438.2	-770.09	530.59	313.05	-738.95	350.7	448.98	-661.1	311.37	424.8	-714.17	277.79	441.86	-685.95	385.49	435.46	-653.72	115.77	407.23	-632.68	144.53	328.79	-682.03	63.053	357.12	-657.01	45.322	329.15	-665.23	40.747	390.3	NaN	NaN	NaN	-493.67	132.9	323.12	-446.15	176.31	371.07	-1046	704.97	142.7	-982.48	599.76	174.58	-1048.4	615.39	162.73	-976.78	685.12	148.02	-1063.7	510.59	189.72	-1066.9	515.14	314.85	-1168.1	349.91	190.87	-1127.8	250.6	223.02	-1191.5	280.98	210.14	-1116.5	319.11	207.06	-1216.9	110.39	237.81	-1198.9	109.95	325.36	-1276.5	81.697	289.89	-1265.7	46.159	318.32	-1271.7	57.219	255.23	-1096.9	40.873	218.76	-1077.5	36.31	334.74	-1012.1	49.251	284.95	-1054.4	1505.7	317.41	-1106.9	1220.9	319.36
133	0.55	-862.98	1210.6	312.61	-980.7	1442.4	491.58	-987.19	1479.6	159.68	-948.36	1765.6	340.98	-869.81	999.33	419.34	-876.58	999.8	186.03	-1073.9	1018.8	353.64	NaN	NaN	NaN	-924.49	887.5	493.44	-980.83	900.26	124.28	-966.79	1063.6	470.18	-976.37	1082.2	161.27	-1094.6	983.75	306.79	-861.02	691.68	480.51	-749.08	636.14	445.17	-816.19	613.55	458.82	-788.69	720.59	466.12	-735.8	540.79	438.17	-765.47	529.33	313.06	-731.37	349.7	448.81	-652.91	311.58	424.5	-705.48	277.17	441.55	-678.89	385.32	435.25	-642.33	116.01	406.6	-621.78	145.25	328.18	-669.8	62.907	356.42	-644.53	45.564	328.41	-652.65	40.777	389.56	NaN	NaN	NaN	-482.52	135.78	322.42	-435.71	179.9	370.44	-1042.5	704.67	142.81	-979.46	599.12	174.5	-1045.1	615.24	162.61	-973.32	684.47	147.92	-1061.2	510.37	189.69	-1064.1	514.86	314.86	-1166.5	350.3	190.93	-1126.8	250.73	222.95	-1190.5	281.35	210.36	-1115.1	319.16	207.02	-1216.3	110.98	237.82	-1198.4	110.39	325.37	-1276.3	82.256	289.92	-1265.5	46.726	318.39	-1271.6	57.774	255.29	-1096.9	40.832	218.77	-1077.4	36.33	334.69	-1012	49.02	284.93	-1049.1	1504.8	317.68	-1101.3	1219.9	319.54
134	0.55417	-857.53	1209.7	312.76	-975.22	1441.4	491.88	-981.75	1478.8	159.99	-943.02	1764.7	341.31	-864.18	998.4	419.29	-871.49	998.77	186	-1068.3	1017.9	354.06	NaN	NaN	NaN	-918.73	886.62	493.54	-976.17	899.5	124.42	-961.07	1062.7	470.37	-971.16	1081.3	161.45	-1089.3	982.92	307.23	-855.84	690.64	480.64	-744.11	634.88	445.08	-811.22	612.43	458.92	-783.47	719.4	466.12	-730.8	539.77	438.14	-760.82	528.08	313.09	-723.91	348.71	448.65	-644.89	311.75	424.22	-696.98	276.56	441.23	-671.92	385.12	435.06	-631.28	116.26	405.95	-611.18	145.94	327.58	-657.94	62.799	355.71	-632.44	45.833	327.66	-640.46	40.836	388.81	NaN	NaN	NaN	-471.71	138.53	321.75	-425.59	183.29	369.85	-1039	704.38	142.93	-976.39	598.48	174.4	-1041.8	615.09	162.5	-969.86	683.82	147.81	-1058.6	510.17	189.67	-1061.3	514.58	314.88	-1164.9	350.7	190.99	-1125.7	250.87	222.88	-1189.4	281.78	210.54	-1113.6	319.24	206.94	-1215.7	111.58	237.84	-1198	110.85	325.36	-1276	82.87	289.93	-1265.4	47.355	318.44	-1271.4	58.377	255.34	-1096.9	40.785	218.78	-1077.3	36.36	334.64	-1011.9	48.788	284.91	-1043.6	1503.8	317.96	-1095.7	1218.9	319.72
135	0.55833	-852.06	1208.7	312.91	-969.72	1440.4	492.18	-976.3	1477.9	160.3	-937.66	1763.8	341.65	-858.51	997.47	419.22	-866.39	997.74	185.98	-1062.7	1017.1	354.51	NaN	NaN	NaN	-912.93	885.74	493.62	-971.5	898.74	124.58	-955.3	1061.8	470.57	-965.94	1080.3	161.63	-1083.9	982.09	307.7	-850.59	689.62	480.78	-739.07	633.64	444.99	-806.2	611.34	459.02	-778.21	718.23	466.11	-725.74	538.74	438.13	-756.13	526.85	313.13	-716.57	347.74	448.48	-637.04	311.87	423.95	-688.66	275.96	440.91	-665.04	384.88	434.88	-620.59	116.49	405.31	-600.91	146.61	326.97	-646.48	62.712	354.98	-620.76	46.112	326.89	-628.69	40.906	388.04	NaN	NaN	NaN	-461.26	141.12	321.11	-415.81	186.48	369.29	-1035.4	704.1	143.06	-973.29	597.86	174.29	-1038.4	614.94	162.42	-966.36	683.19	147.7	-1056	509.97	189.65	-1058.3	514.3	314.91	-1163.3	351.14	191.05	-1124.6	251.03	222.8	-1188.2	282.28	210.69	-1112.1	319.36	206.84	-1215.2	112.17	237.85	-1197.5	111.36	325.34	-1275.7	83.541	289.92	-1265.2	48.048	318.48	-1271.2	59.029	255.37	-1096.9	40.734	218.78	-1077.2	36.401	334.59	-1011.8	48.556	284.88	-1038.2	1502.9	318.25	-1090.1	1218	319.91
